<svg width="24" height="24" viewBox="0 0 24 24" fill="none" xmlns="http://www.w3.org/2000/svg">
<path d="M23.5111 0.488306C22.8604 -0.162769 21.8039 -0.162769 21.1533 0.488306L11.9996 9.64189L2.84636 0.488306C2.19568 -0.162769 1.13925 -0.162769 0.488567 0.488306C-0.162856 1.13938 -0.162856 2.19548 0.488567 2.84655L9.64184 12.0001L0.488567 21.1537C-0.162856 21.8048 -0.162856 22.8605 0.488567 23.5116C0.813908 23.8373 1.24078 24 1.66765 24C2.09452 24 2.52139 23.8373 2.84673 23.5116L12 14.358L21.1533 23.5116C21.4786 23.8373 21.9055 24 22.3324 24C22.7592 24 23.1861 23.8373 23.5114 23.5116C24.1629 22.8605 24.1629 21.8048 23.5114 21.1537L14.3578 11.9998L23.5111 2.84618C24.1625 2.19548 24.1625 1.13938 23.5111 0.488306Z" fill="current"/>
</svg>
