<svg width="28" height="28" viewBox="0 0 28 28" fill="none" xmlns="http://www.w3.org/2000/svg">
<path fill-rule="evenodd" clip-rule="evenodd" d="M23.9124 23.9124C26.4416 21.3832 28 17.8577 28 14C28 10.1423 26.4416 6.64234 23.9124 4.11314C21.3832 1.55839 17.8577 0 14 0C10.1423 0 6.64234 1.55839 4.11314 4.11314C1.55839 6.64234 0 10.1423 0 14C0 17.8577 1.55839 21.3832 4.11314 23.9124C6.64234 26.4416 10.1423 28 14 28C17.8577 28 21.3832 26.4416 23.9124 23.9124ZM16.708 19.4161L14 16.708L11.292 19.4161C10.8066 19.9015 9.98905 19.9015 9.50365 19.4161L8.60949 18.4964C8.09854 18.0109 8.09854 17.1934 8.60949 16.708L11.292 14L8.60949 11.292C8.09854 10.8066 8.09854 9.98905 8.60949 9.50365L9.50365 8.60949C9.98905 8.09854 10.8066 8.09854 11.292 8.60949L14 11.292L16.708 8.60949C17.1934 8.09854 18.0109 8.09854 18.4964 8.60949L19.4161 9.50365C19.9015 9.98905 19.9015 10.8066 19.4161 11.292L16.708 14L19.4161 16.708C19.9015 17.1934 19.9015 18.0109 19.4161 18.4964L18.4964 19.4161C18.0109 19.9015 17.1934 19.9015 16.708 19.4161Z" fill="current"/>
</svg>
