<svg width="28" height="28" viewBox="0 0 28 28" fill="none" xmlns="http://www.w3.org/2000/svg">
<path fill-rule="evenodd" clip-rule="evenodd" d="M14 0C21.7318 0 28 6.26784 28 14C28 21.7318 21.7322 28 14 28C6.26816 28 0 21.7318 0 14C0 6.26816 6.26816 0 14 0ZM7.44689 14.8311L11.4342 18.4929C12.0158 19.0281 12.916 18.9999 13.4629 18.4355L20.5758 11.6253C21.1545 11.0688 21.1723 10.1487 20.6157 9.57003C20.0592 8.99138 19.1391 8.97353 18.5604 9.53011L12.399 15.4293L9.41685 12.6905C8.82586 12.1466 7.90547 12.1848 7.36154 12.7758C6.81761 13.3671 6.8559 14.2872 7.44689 14.8311Z" fill="current"/>
</svg>
