<svg width="28" height="28" viewBox="0 0 28 28" fill="none" xmlns="http://www.w3.org/2000/svg">
<path fill-rule="evenodd" clip-rule="evenodd" d="M28 14C28 21.7319 21.7319 28 14 28C6.26807 28 0 21.7319 0 14C0 6.26807 6.26807 0 14 0C21.7319 0 28 6.26807 28 14ZM15.9993 21C15.9993 22.1045 15.1038 23 13.9993 23C12.8948 23 11.9993 22.1045 11.9993 21C11.9993 19.8955 12.8948 19 13.9993 19C15.1038 19 15.9993 19.8955 15.9993 21ZM15.5 16C16.0408 13.9548 16.4993 10.7654 16.4993 8.5C16.4993 4.99536 15.1714 4.99805 14.0806 5.00024H14.0012H13.9219C12.8311 4.99805 11.4993 4.99536 11.4993 8.5C11.4993 10.7654 11.9592 13.9548 12.5 16C12.8162 17.1956 13.5938 17.5 14.0012 17.5C14.4089 17.5 15.1838 17.1956 15.5 16Z" fill="current"/>
</svg>
